<svg width="146" height="21" viewBox="0 0 146 21" fill="none" xmlns="http://www.w3.org/2000/svg">
<mask id="mask0_8336_172799" style="mask-type:luminance" maskUnits="userSpaceOnUse" x="0" y="0" width="146" height="21">
<path d="M146 0H0V21H146V0Z" fill="white"/>
</mask>
<g mask="url(#mask0_8336_172799)">
<path fill-rule="evenodd" clip-rule="evenodd" d="M16.378 2.22558L28.7815 0.646971C29.3309 0.577101 29.8845 0.736282 30.3206 1.0895C30.7568 1.44272 31.0397 1.96105 31.1072 2.53049L32.6301 15.3879C32.6635 15.6699 32.643 15.9559 32.5698 16.2297C32.4966 16.5035 32.372 16.7596 32.2033 16.9835C32.0346 17.2073 31.8249 17.3945 31.5864 17.5344C31.3479 17.6743 31.0851 17.7641 30.813 17.7987L18.4095 19.3773C17.8602 19.4472 17.3065 19.288 16.8704 18.9347C16.4343 18.5815 16.1513 18.0632 16.0838 17.4938L14.561 4.63634C14.4935 4.06689 14.6471 3.49301 14.9879 3.04091C15.3286 2.58882 15.8286 2.29554 16.378 2.22558Z" fill="#DD3E37"/>
<path fill-rule="evenodd" clip-rule="evenodd" d="M46.5608 1.3659L58.9872 0.0118513C59.2598 -0.0178458 59.5353 0.00840153 59.7981 0.0890947C60.0609 0.169788 60.3058 0.303347 60.5188 0.482145C60.7318 0.660944 60.9087 0.88148 61.0395 1.13116C61.1703 1.38085 61.2524 1.65478 61.281 1.93734L62.5855 14.8184C62.6142 15.101 62.5889 15.3866 62.5111 15.6591C62.4333 15.9315 62.3045 16.1854 62.132 16.4062C61.9595 16.627 61.7467 16.8104 61.5058 16.9459C61.2649 17.0815 61.0006 17.1665 60.728 17.1961L48.3016 18.5502C48.0291 18.5799 47.7535 18.5536 47.4907 18.4729C47.2279 18.3923 46.983 18.2587 46.77 18.0799C46.557 17.9011 46.3801 17.6806 46.2493 17.4309C46.1185 17.1812 46.0365 16.9073 46.0079 16.6247L44.7033 3.74363C44.6747 3.46107 44.7 3.17544 44.7778 2.90303C44.8557 2.63062 44.9845 2.37677 45.157 2.15598C45.3295 1.93518 45.5423 1.75177 45.7831 1.61621C46.024 1.48065 46.2883 1.39559 46.5608 1.3659Z" fill="#79A31E"/>
<path fill-rule="evenodd" clip-rule="evenodd" d="M62.3634 0.677734H74.885C75.4385 0.677734 75.9694 0.905667 76.3608 1.31139C76.7522 1.71711 76.972 2.26739 76.972 2.84117V15.8209C76.972 16.3947 76.7522 16.945 76.3608 17.3507C75.9694 17.7564 75.4385 17.9844 74.885 17.9844H62.3634C61.8099 17.9844 61.2791 17.7564 60.8877 17.3507C60.4963 16.945 60.2764 16.3947 60.2764 15.8209V2.84117C60.2764 2.26739 60.4963 1.71711 60.8877 1.31139C61.2791 0.905667 61.8099 0.677734 62.3634 0.677734Z" fill="#F08535"/>
<path fill-rule="evenodd" clip-rule="evenodd" d="M77.8935 1.04398L90.3716 1.72167C90.9243 1.75179 91.4428 2.00825 91.8131 2.43464C92.1835 2.86103 92.3752 3.42244 92.3463 3.99538L91.6925 16.9296C91.6782 17.2133 91.61 17.4913 91.4921 17.7478C91.3741 18.0042 91.2085 18.2341 91.0048 18.4242C90.8012 18.6143 90.5633 18.761 90.305 18.8558C90.0466 18.9507 89.7728 18.9918 89.499 18.977L77.0214 18.2993C76.7477 18.2845 76.4795 18.2139 76.232 18.0916C75.9846 17.9693 75.7629 17.7977 75.5795 17.5866C75.396 17.3754 75.2546 17.1289 75.1631 16.861C75.0716 16.5932 75.0319 16.3093 75.0463 16.0255L75.7001 3.09135C75.7144 2.80762 75.7825 2.52959 75.9005 2.27315C76.0185 2.0167 76.1841 1.78686 76.3877 1.59674C76.5914 1.40663 76.8293 1.25996 77.0876 1.16512C77.346 1.07027 77.6198 1.02911 77.8935 1.04398Z" fill="#CD587B"/>
<path fill-rule="evenodd" clip-rule="evenodd" d="M32.9885 1.25977L45.4816 1.48566C46.035 1.49576 46.5619 1.73331 46.9463 2.14605C47.3308 2.5588 47.5413 3.11295 47.5316 3.6866L47.3137 16.6369C47.3041 17.2105 47.075 17.7567 46.6769 18.1553C46.2788 18.5539 45.7443 18.7723 45.1909 18.7624L32.6973 18.5369C32.1439 18.5268 31.6171 18.2893 31.2326 17.8765C30.8482 17.4638 30.6376 16.9096 30.6473 16.336L30.8652 3.3857C30.87 3.10162 30.9287 2.8213 31.038 2.56073C31.1473 2.30017 31.305 2.06447 31.5021 1.8671C31.6993 1.66972 31.932 1.51454 32.1871 1.41041C32.4421 1.30628 32.7144 1.25524 32.9885 1.26021" fill="#E9C501"/>
<path fill-rule="evenodd" clip-rule="evenodd" d="M2.08707 1.94922H14.6086C15.1621 1.94922 15.693 2.17715 16.0844 2.58288C16.4758 2.9886 16.6957 3.53888 16.6957 4.11266V17.0924C16.6957 17.6662 16.4758 18.2165 16.0844 18.6222C15.693 19.0279 15.1621 19.2558 14.6086 19.2558H2.08707C1.53354 19.2558 1.00269 19.0279 0.611288 18.6222C0.219887 18.2165 0 17.6662 0 17.0924L0 4.11266C0 3.53888 0.219887 2.9886 0.611288 2.58288C1.00269 2.17715 1.53354 1.94922 2.08707 1.94922Z" fill="#009ADB"/>
<path d="M12.8779 14.3697C12.4298 14.9046 11.8751 15.3324 11.2521 15.6237C10.5503 15.9441 9.78959 16.102 9.02292 16.0862C8.2973 16.0939 7.57679 15.9596 6.89924 15.6902C6.26608 15.4395 5.68965 15.056 5.20603 14.5638C4.72241 14.0715 4.34201 13.4811 4.08864 12.8295C3.54426 11.3859 3.54672 9.7823 4.09553 8.34053C4.35565 7.68931 4.74493 7.10205 5.23812 6.61683C5.73186 6.13752 6.31343 5.76588 6.94834 5.52395C8.29989 5.01286 9.78256 5.01555 11.1324 5.53154C11.7654 5.75984 12.3321 6.1511 12.7793 6.66862L11.1535 8.37044C10.9307 8.04892 10.6244 7.79964 10.2702 7.65168C9.91559 7.49731 9.53497 7.41749 9.1504 7.41685C8.75278 7.41198 8.35868 7.49444 7.99403 7.65882C7.65121 7.81496 7.34327 8.04296 7.0896 8.32848C6.83227 8.62065 6.6323 8.96198 6.50087 9.33341C6.35737 9.73968 6.28616 10.1696 6.29069 10.6022C6.28576 11.0421 6.35694 11.4794 6.50087 11.8933C6.62951 12.2645 6.82719 12.6059 7.08271 12.8982C7.33202 13.1781 7.63532 13.4005 7.97293 13.5509C8.33149 13.7101 8.71814 13.7901 9.10819 13.7857C9.54151 13.7965 9.97064 13.6958 10.3572 13.4924C10.6954 13.3099 10.9875 13.0473 11.2095 12.7259L12.8779 14.3697Z" fill="white"/>
<path d="M23.1713 6.99387L22.3194 10.7207L24.8397 10.3997L23.1713 6.99387ZM26.7636 14.2672L25.7433 12.327L21.8633 12.8208L21.3685 14.9539L18.7349 15.2891L21.71 4.36747L24.0606 4.06836L29.4545 13.923L26.7636 14.2672Z" fill="white"/>
<path d="M41.5642 7.56488C41.3642 7.26636 41.0985 7.02151 40.789 6.85058C40.494 6.67514 40.1657 6.5685 39.8269 6.53807C39.6617 6.52646 39.4959 6.52929 39.3312 6.54655C39.1705 6.56148 39.014 6.60768 38.8699 6.68272C38.732 6.7554 38.6103 6.85713 38.5124 6.98138C38.4068 7.12436 38.3472 7.29822 38.3423 7.47827C38.3268 7.63169 38.3537 7.78653 38.4199 7.92471C38.4917 8.05705 38.5921 8.17042 38.7131 8.25596C38.8628 8.36448 39.0224 8.45763 39.1895 8.5341C39.375 8.6213 39.5841 8.71267 39.817 8.80821C40.1518 8.95047 40.5002 9.10613 40.8622 9.27518C41.2155 9.43844 41.5441 9.65361 41.8382 9.91404C42.1281 10.1724 42.3654 10.4881 42.5363 10.8426C42.7214 11.255 42.7948 11.7118 42.7486 12.1641C42.7256 12.7006 42.5796 13.2237 42.3227 13.69C42.0894 14.0987 41.7688 14.4465 41.3855 14.7065C40.9935 14.969 40.5574 15.1527 40.0999 15.2481C39.6213 15.3514 39.1311 15.3854 38.6434 15.349C37.9265 15.2983 37.2242 15.1149 36.5697 14.8074C35.9496 14.5289 35.3987 14.108 34.9585 13.5766L36.6713 12.0185C36.9179 12.3687 37.2334 12.6607 37.5968 12.8753C37.9561 13.104 38.3623 13.2417 38.7825 13.2771C38.9603 13.2903 39.1389 13.2834 39.3152 13.2565C39.4777 13.2338 39.6347 13.18 39.7782 13.098C39.9134 13.0185 40.0271 12.9051 40.109 12.7681C40.1999 12.6102 40.2515 12.4313 40.2589 12.2476C40.2761 12.0701 40.2379 11.8915 40.1499 11.7382C40.0494 11.5788 39.9196 11.4415 39.7679 11.3342C39.5691 11.1913 39.3558 11.0715 39.1318 10.977C38.8759 10.8651 38.5851 10.7432 38.2592 10.6114C37.9428 10.4802 37.6342 10.3296 37.335 10.1605C37.0416 9.99626 36.775 9.78536 36.5447 9.53546C36.3136 9.28169 36.1337 8.98269 36.0154 8.65597C35.8837 8.26729 35.8356 7.85343 35.8745 7.44345C35.895 6.92537 36.0478 6.42222 36.3173 5.98538C36.5667 5.5976 36.8977 5.27353 37.2854 5.03759C37.6859 4.79518 38.1249 4.62887 38.5818 4.54651C39.0523 4.45829 39.5316 4.43114 40.0086 4.4657C40.6051 4.51352 41.1895 4.66567 41.7369 4.91571C42.3016 5.16263 42.8119 5.52595 43.237 5.98359L41.5642 7.56488Z" fill="white"/>
<path d="M54.4031 4.06985L52.0684 4.32422L53.1236 14.7314L55.4584 14.477L54.4031 4.06985Z" fill="white"/>
<path d="M70.6949 14.5963L66.6586 7.72564H66.6155L66.6719 14.5963H64.3213V4.08984H67.0828L71.1049 10.9458H71.148L71.0916 4.08984H73.4426V14.5963H70.6949Z" fill="white"/>
<path d="M86.6431 9.80683C86.6463 9.37618 86.5733 8.94859 86.4278 8.5452C86.2958 8.17276 86.0938 7.83118 85.8335 7.54026C85.5748 7.2574 85.2629 7.03266 84.917 6.87998C84.5436 6.71543 84.1413 6.63304 83.7356 6.63801C83.3321 6.63251 82.932 6.71495 82.5612 6.87998C82.2166 7.03513 81.9051 7.25955 81.6447 7.54026C81.3811 7.82863 81.1787 8.17093 81.0503 8.5452C80.9096 8.94969 80.8394 9.37686 80.8428 9.80683C80.8385 10.2495 80.9114 10.6893 81.0581 11.1051C81.1901 11.4819 81.392 11.8283 81.6524 12.1247C81.9075 12.4108 82.2171 12.6388 82.5616 12.7944C83.3135 13.1172 84.1582 13.1172 84.9101 12.7944C85.2561 12.6377 85.5679 12.4099 85.8266 12.1247C86.0915 11.8302 86.2965 11.4834 86.4295 11.1051C86.5763 10.6893 86.6492 10.2495 86.6449 9.80683M89.2655 9.80683C89.2748 10.5788 89.1336 11.3447 88.8504 12.0587C88.5874 12.7175 88.1948 13.3122 87.6974 13.8047C87.1919 14.2978 86.5951 14.6796 85.9433 14.927C84.5196 15.4552 82.9633 15.4552 81.5396 14.927C80.8904 14.6783 80.2962 14.2966 79.7923 13.8047C79.295 13.3122 78.9023 12.7175 78.6394 12.0587C78.3561 11.3447 78.2149 10.5788 78.2242 9.80683C78.2131 9.03473 78.3544 8.26841 78.6394 7.555C78.9017 6.90662 79.2948 6.32392 79.7923 5.84603C80.2992 5.36711 80.8932 4.99798 81.5396 4.76029C82.9665 4.25178 84.5164 4.25178 85.9433 4.76029C86.5923 4.99671 87.1888 5.36594 87.6974 5.84603C88.1949 6.32392 88.588 6.90662 88.8504 7.555C89.1353 8.26844 89.2766 9.03474 89.2655 9.80683Z" fill="white"/>
<path fill-rule="evenodd" clip-rule="evenodd" d="M105.575 5.05484C104.718 4.80388 103.827 4.69228 102.937 4.72403C102.231 4.72403 101.633 4.72671 101.142 4.73207C100.651 4.73742 100.198 4.75082 99.7841 4.77224H99.7716C99.4136 4.7951 99.0777 4.95951 98.8332 5.23156C98.5887 5.5036 98.4543 5.86254 98.4576 6.23433V14.5086C98.456 14.7064 98.4921 14.9025 98.5637 15.0858C98.6353 15.2691 98.741 15.436 98.8748 15.5769C99.0086 15.7179 99.1679 15.8301 99.3436 15.9073C99.5193 15.9844 99.7079 16.0249 99.8986 16.0265H100.222C100.64 16.0232 101.04 15.8479 101.333 15.5393C101.626 15.2306 101.789 14.8138 101.786 14.3805V12.1809L101.863 12.1907C102.372 12.25 102.884 12.2798 103.397 12.28C104.182 12.3087 104.966 12.1968 105.714 11.9492C105.983 11.8533 106.231 11.7025 106.443 11.5057C106.655 11.3088 106.827 11.07 106.949 10.8032C107.232 10.0787 107.36 9.29943 107.325 8.51875C107.362 7.7279 107.225 6.93863 106.926 6.21022C106.788 5.93305 106.597 5.68781 106.365 5.48936C106.133 5.2909 105.865 5.14338 105.576 5.05573M103.904 9.31787C103.879 9.40453 103.836 9.48434 103.778 9.55141C103.719 9.61847 103.647 9.67109 103.566 9.70539C103.339 9.78569 103.1 9.82127 102.86 9.8103H101.787V7.19729C102.125 7.1958 102.483 7.19506 102.86 7.19506C103.1 7.1842 103.339 7.21993 103.566 7.30042C103.648 7.33565 103.72 7.38954 103.779 7.45805C103.837 7.52655 103.88 7.60789 103.904 7.69597C103.974 7.96401 104.005 8.24154 103.996 8.51919C104.005 8.78891 103.974 9.05849 103.904 9.31832" fill="white"/>
<path fill-rule="evenodd" clip-rule="evenodd" d="M114.119 13.0951C113.952 13.1038 113.787 13.0483 113.657 12.9393C113.601 12.8894 113.556 12.8271 113.526 12.7568C113.496 12.6865 113.482 12.6102 113.485 12.5335V6.32532C113.484 6.15248 113.451 5.98146 113.386 5.822C113.322 5.66255 113.228 5.51779 113.11 5.396C112.991 5.2742 112.851 5.17775 112.697 5.11215C112.543 5.04655 112.377 5.01309 112.211 5.01368H111.491C111.148 5.01249 110.819 5.1524 110.576 5.40264C110.333 5.65287 110.195 5.99295 110.194 6.34808V13.3915C110.182 13.719 110.235 14.0457 110.351 14.3505C110.467 14.6554 110.644 14.9318 110.869 15.1621C111.112 15.394 111.397 15.5734 111.707 15.6899C112.018 15.8064 112.348 15.8577 112.677 15.8407C113.536 15.8407 114.407 15.8303 115.291 15.8094C115.725 15.799 116.145 15.7788 116.552 15.7487C116.879 15.7267 117.184 15.5716 117.401 15.3174C117.618 15.0632 117.729 14.7304 117.71 14.3916L117.705 14.3023C117.684 13.9748 117.544 13.6678 117.312 13.4439C117.081 13.2199 116.776 13.0958 116.459 13.0969L114.119 13.0951Z" fill="white"/>
<path fill-rule="evenodd" clip-rule="evenodd" d="M126.907 11.426C126.919 11.8647 126.882 12.3033 126.796 12.7331C126.775 12.8612 126.729 12.9837 126.662 13.0933C126.594 13.2029 126.506 13.2975 126.403 13.3715C126.157 13.5042 125.88 13.5659 125.603 13.5501C125.323 13.5652 125.045 13.5036 124.796 13.3715C124.691 13.2987 124.601 13.2046 124.532 13.0949C124.464 12.9851 124.417 12.8621 124.395 12.7331C124.31 12.3033 124.273 11.8647 124.284 11.426V6.55399C124.284 6.37594 124.251 6.19961 124.185 6.03507C124.119 5.87052 124.023 5.72099 123.902 5.59501C123.78 5.46903 123.636 5.36906 123.478 5.30082C123.319 5.23257 123.149 5.19738 122.977 5.19727H122.281C121.96 5.19762 121.651 5.33035 121.424 5.56627C121.197 5.80219 121.07 6.12198 121.07 6.45532V11.4255C121.033 12.3483 121.187 13.2686 121.522 14.1247C121.816 14.7895 122.347 15.3105 123.003 15.5783C123.888 15.9101 124.826 16.0617 125.766 16.0247C126.639 16.0606 127.509 15.9086 128.322 15.5783C128.945 15.2961 129.439 14.7753 129.7 14.1247C130.013 13.2633 130.157 12.3454 130.122 11.4255V6.74908C130.122 6.54543 130.084 6.34375 130.009 6.15554C129.934 5.96733 129.824 5.79628 129.685 5.65218C129.546 5.50807 129.381 5.39373 129.2 5.31567C129.018 5.23762 128.824 5.19738 128.627 5.19727H128.223C128.05 5.19738 127.879 5.23283 127.719 5.30157C127.56 5.37032 127.414 5.47101 127.292 5.59791C127.17 5.72481 127.073 5.87543 127.007 6.04116C126.941 6.20689 126.907 6.3845 126.907 6.56381V11.426Z" fill="white"/>
<path fill-rule="evenodd" clip-rule="evenodd" d="M141.024 10.8984C140.553 10.3054 139.937 9.85428 139.24 9.59216L137.388 8.7975C137.141 8.70744 136.905 8.58757 136.685 8.44035C136.628 8.40089 136.582 8.34774 136.55 8.28551C136.517 8.22328 136.5 8.15384 136.5 8.08319C136.496 8.01415 136.511 7.94548 136.543 7.88453C136.578 7.82853 136.63 7.7857 136.691 7.76221C136.783 7.72647 136.881 7.70584 136.979 7.70104C137.103 7.69122 137.258 7.68616 137.446 7.68586C138.087 7.68586 138.736 7.68839 139.393 7.69345C139.716 7.69613 140.013 7.69926 140.285 7.70283C140.492 7.70646 140.691 7.62923 140.845 7.48661C140.999 7.34399 141.095 7.14648 141.114 6.93362C141.15 6.53466 141.039 6.13626 140.803 5.81918C140.566 5.50209 140.222 5.29003 139.841 5.22599C139.669 5.19623 139.494 5.17316 139.318 5.1568C138.652 5.09072 138.052 5.05769 137.519 5.05769C136.862 5.04852 136.206 5.09961 135.557 5.21037C135.096 5.28182 134.654 5.45375 134.262 5.71484C133.936 5.9489 133.686 6.27895 133.544 6.66218C133.378 7.14213 133.3 7.65021 133.314 8.15998C133.284 8.82821 133.465 9.48843 133.831 10.0395C134.306 10.6168 134.911 11.063 135.593 11.3382L137.622 12.2552C137.77 12.3082 137.915 12.3747 138.052 12.4538C138.135 12.5 138.206 12.5654 138.259 12.6449C138.301 12.7217 138.322 12.809 138.318 12.8971C138.32 12.9381 138.314 12.9791 138.3 13.0175C138.286 13.0559 138.265 13.0909 138.237 13.1204C138.152 13.1894 138.049 13.2295 137.941 13.2351C137.732 13.2592 137.522 13.2694 137.311 13.2659C137.134 13.2659 136.865 13.2634 136.505 13.2583C136.145 13.2532 135.718 13.2431 135.224 13.2279C135.065 13.2229 134.901 13.2181 134.732 13.2137C134.425 13.2054 134.127 13.3184 133.898 13.5298C133.669 13.7412 133.527 14.0351 133.499 14.3516C133.473 14.6823 133.566 15.0114 133.761 15.2747C133.956 15.538 134.238 15.7166 134.553 15.7758C134.961 15.8553 135.373 15.9127 135.787 15.9476C136.487 16.0036 137.011 16.0317 137.356 16.032C138.027 16.044 138.696 15.985 139.355 15.8561C139.817 15.7696 140.255 15.5796 140.639 15.2994C140.961 15.0486 141.201 14.7021 141.328 14.3061C141.477 13.8197 141.547 13.3112 141.536 12.8012C141.563 12.1271 141.384 11.4612 141.025 10.8989" fill="white"/>
</g>
</svg>
