<svg width="23" height="24" viewBox="0 0 23 24" fill="none" xmlns="http://www.w3.org/2000/svg">
<g clip-path="url(#clip0_4025_75094)">
<path d="M9.5136 18.3574H8.53198V20.576H9.12327V19.7444H9.5113C10.061 19.7444 10.2319 19.3507 10.2319 19.0561C10.2342 18.7615 10.0633 18.3574 9.5136 18.3574ZM9.25261 19.3168H9.12558V18.7824H9.2503C9.53208 18.7824 9.6314 18.8449 9.6314 19.0587C9.62909 19.2725 9.53208 19.3168 9.25261 19.3168Z" fill="#0C3DC0"/>
<path d="M11.2685 18.3286L10.3879 20.5781H11.0039L11.1701 20.1181H12.0328L12.1959 20.5781H12.8118L11.9336 18.3286H11.2685ZM11.6057 18.9128L11.8955 19.7304H11.3102L11.6057 18.9128Z" fill="#023CBF"/>
<path d="M14.3332 19.777H14.6021V20.039C14.5348 20.0546 14.463 20.0728 14.361 20.0728C13.9461 20.0728 13.7398 19.7796 13.7398 19.4526C13.7398 19.2217 13.8673 18.7909 14.4282 18.7909C14.7643 18.7909 14.9683 18.9207 15.0842 18.9959V18.4744C14.9498 18.4251 14.6786 18.3135 14.2822 18.3135C14.0179 18.3135 13.7374 18.3472 13.4546 18.5937C13.2252 18.7961 13.1348 19.149 13.1348 19.4422C13.1348 20.2388 13.6702 20.5814 14.2497 20.5814C14.463 20.5814 14.6554 20.5476 14.8037 20.5087C14.9219 20.4776 15.0054 20.4438 15.1213 20.3945V19.3358H14.3355V19.777H14.3332Z" fill="#0C3DC0"/>
<path d="M16.3986 19.4612C16.3986 19.0752 16.7139 18.8411 17.0524 18.8411C17.3468 18.8411 17.5694 19.0032 17.6783 19.0778V18.4962C17.5207 18.4345 17.2494 18.3315 16.9179 18.3315C16.3244 18.3315 15.7935 18.6815 15.7935 19.4535C15.7935 20.1226 16.2131 20.5781 16.9086 20.5781C17.1683 20.5781 17.4279 20.5318 17.6876 20.3851V19.8318C17.5717 19.9116 17.3375 20.0686 17.0199 20.0686C16.6536 20.066 16.3986 19.7932 16.3986 19.4612Z" fill="#0C3DC0"/>
<path d="M19.292 18.3252C18.5155 18.3252 18.1658 18.883 18.1658 19.4512C18.1658 20.0194 18.5155 20.5798 19.292 20.5798C20.0429 20.5798 20.4183 20.0529 20.4183 19.4512C20.416 18.8572 20.0475 18.3252 19.292 18.3252ZM19.292 20.0168C18.9656 20.0168 18.7767 19.7818 18.7767 19.4512C18.7767 19.1206 18.9679 18.8882 19.292 18.8882C19.6232 18.8882 19.8074 19.1258 19.8074 19.4512C19.8074 19.7792 19.6232 20.0168 19.292 20.0168Z" fill="#0C3DC0"/>
<path d="M22.7973 20.0877C22.6426 19.7048 22.5825 19.6626 22.4717 19.586C22.5525 19.5385 22.795 19.4064 22.795 19.0262C22.795 18.7701 22.6287 18.3291 22.0998 18.3291H21.0928V20.5762H21.6841V19.6995H21.751C21.9289 19.6995 22.0305 19.7259 22.2037 20.1775L22.3585 20.5762H22.9937L22.7973 20.0877ZM21.8134 19.3008H21.6864V18.7595H21.8111C22.0744 18.7595 22.1922 18.8282 22.1922 19.0394C22.1899 19.248 22.0952 19.3008 21.8134 19.3008Z" fill="#0C3DC0"/>
<path d="M18.9957 6.62738C18.9957 7.99829 18.5181 9.44575 17.3225 10.6383C17.0908 10.8695 16.8131 11.0957 16.5269 11.3087C15.1926 12.3024 13.3556 12.8414 11.0968 13.439C8.7296 14.0653 7.44739 14.761 6.54516 15.5454C7.48496 15.8351 8.80786 16.3411 9.64553 16.7522C8.21685 16.8546 7.20847 17.0704 6.5328 17.4087C6.22169 17.5645 5.97391 17.7392 5.79153 17.9648C5.54405 18.2709 5.49281 18.5921 5.49281 18.769C5.49281 19.5428 6.12754 20.4511 7.15273 21.3259C8.12735 22.1576 9.72352 23.1841 11.7811 23.8247C11.7811 23.8247 11.1566 23.6725 10.3671 23.5143C8.86769 23.2137 7.30741 22.945 6.14161 22.6326C5.61606 22.4918 5.30487 22.4151 4.73174 22.2224C4.15693 22.029 3.74048 21.8482 3.57943 21.776C1.41846 20.8078 0.00878906 19.348 0.00878906 17.0238C0.00878906 15.8156 0.340324 14.6864 0.912445 13.6955C1.41835 12.8193 2.01267 12.1787 2.70184 11.6908C3.26608 11.2914 3.84591 11.0111 4.48867 10.7679C5.29449 9.55924 5.7656 7.88524 5.7656 6.22963C5.7656 4.02561 4.93552 1.73357 2.96927 0.447234C5.47138 0.825835 7.33827 1.9554 8.35634 3.19375C9.10671 4.10648 9.44775 5.1235 9.44775 6.04855C9.44775 7.34774 8.71982 8.79505 8.03876 9.86041C7.76285 10.292 7.48826 10.6215 7.35366 10.7995C7.17128 11.0406 7.06982 11.1682 7.06982 11.1682C10.312 10.261 13.1128 8.32501 13.1128 5.67604C13.1128 2.95464 10.1651 0.854278 6.84253 0C11.9774 0.363044 14.9451 1.01883 16.8683 2.40972C18.0582 3.27032 18.9957 4.81768 18.9957 6.62738Z" fill="#0840CB"/>
<path d="M18.9869 6.62738C18.9869 7.9983 18.5093 9.44575 17.3137 10.6383C17.082 10.8695 16.8043 11.0957 16.5181 11.3087C15.1838 12.3024 13.3468 12.8414 11.0881 13.439C8.72081 14.0653 7.4386 14.761 6.53637 15.5454C7.47617 15.8351 8.79907 16.3411 9.63675 16.7522C8.20806 16.8546 7.19968 17.0704 6.52401 17.4087C6.2129 17.5645 5.96512 17.7391 5.78274 17.9648C5.53525 18.2709 5.48402 18.5921 5.48402 18.769C5.48402 19.5428 6.11875 20.4511 7.14394 21.3259C8.11856 22.1576 9.71473 23.1841 11.7723 23.8247C11.7723 23.8247 11.1478 23.6725 10.3583 23.5143C8.8589 23.2137 7.29862 22.945 6.13282 22.6326C5.60727 22.4918 5.29608 22.4151 4.72295 22.2224C4.14814 22.029 3.73169 21.8482 3.57064 21.776C1.40967 20.8078 0 19.348 0 17.0238C0 15.8156 0.331535 14.6864 0.903654 13.6955C1.40956 12.8193 2.00388 12.1787 2.69305 11.6908C3.2573 11.2914 3.83671 11.01 4.47988 10.7679C5.63331 10.3338 6.97795 10.1046 7.99398 9.92159C7.7197 10.3454 7.49432 10.6019 7.34487 10.7995C7.16249 11.0406 7.06103 11.1682 7.06103 11.1682C10.3032 10.261 13.104 8.32501 13.104 5.67604C13.104 2.95464 10.1563 0.854278 6.83374 0C11.9686 0.363044 14.9363 1.01883 16.8595 2.40972C18.0495 3.27032 18.9869 4.81768 18.9869 6.62738Z" fill="url(#paint0_linear_4025_75094)"/>
</g>
<defs>
<linearGradient id="paint0_linear_4025_75094" x1="7.0459" y1="12.8221" x2="11.4944" y2="11.617" gradientUnits="userSpaceOnUse">
<stop stop-color="#C10001"/>
<stop offset="1" stop-color="#C10001" stop-opacity="0"/>
</linearGradient>
<clipPath id="clip0_4025_75094">
<rect width="23" height="23.8247" fill="white"/>
</clipPath>
</defs>
</svg>
