<svg width="26" height="26" viewBox="0 0 26 26" fill="none" xmlns="http://www.w3.org/2000/svg">
<path d="M24.0796 14.5209V15.5729C23.8564 17.422 22.9106 19.0903 21.3485 20.1743C19.6482 21.3538 17.5229 21.6089 15.5995 20.8438C14.7387 20.5037 14.0055 20.0255 13.2935 19.4198C13.7292 21.0669 14.9938 22.4803 16.3115 23.4367C16.5134 23.5854 16.609 23.798 16.5559 24.053C16.5134 24.2549 16.3327 24.3931 16.1308 24.4993H9.55288C9.34035 24.4037 9.15969 24.2655 9.12781 24.0636C9.07468 23.798 9.1597 23.5854 9.37223 23.4367C10.6581 22.5015 11.9545 21.0882 12.3796 19.4517C11.657 20.0361 10.9662 20.4931 10.148 20.8331C8.17141 21.6301 5.97169 21.3751 4.25016 20.1318C2.77305 19.0691 1.79539 17.4432 1.62536 15.6048C1.43408 13.5538 2.37986 11.5773 3.81446 10.1427L11.3382 2.61896C12.1883 1.76882 13.5698 1.81133 14.4093 2.65084L21.8692 10.1108C23.1232 11.3647 23.867 12.8206 24.1008 14.5209H24.0796Z" fill="#366E6D"/>
</svg>
