<svg width="26" height="26" viewBox="0 0 26 26" fill="none" xmlns="http://www.w3.org/2000/svg">
<path fill-rule="evenodd" clip-rule="evenodd" d="M10.7316 2.71603C12.078 1.78757 13.8386 1.7462 15.1954 2.68478L22.3322 7.60275C23.3886 8.32719 23.9992 9.48065 23.9992 10.7561V19.3059C23.9888 21.3057 22.3109 22.99 20.2911 23.0002H17.9992V17.6135C18.0097 15.0798 15.816 13.0399 13.0685 13.0012C10.353 12.9723 8.0098 14.9451 7.99916 17.4787V23.0002H5.61439C3.64654 22.9389 2.00013 21.275 2.00013 19.3059V10.7561C1.98977 9.49094 2.58988 8.3375 3.63587 7.62326L10.7316 2.71603ZM13.0265 14.4319C14.8901 14.4513 16.423 15.825 16.423 17.5656V23.0002H9.58607V17.5168C9.58619 15.7858 11.1735 14.4222 13.0265 14.4319Z" fill="#366E6D"/>
</svg>
