<svg width="26" height="26" viewBox="0 0 26 26" fill="none" xmlns="http://www.w3.org/2000/svg">
<path d="M19.2261 24.4512H7.05708C6.58823 24.4512 6.04646 24.2115 5.60887 24.0136C4.43156 23.4718 3.69183 22.3362 3.58764 21.0443C3.47304 19.596 3.63974 18.1687 3.99397 16.7622C4.20235 15.9182 4.53575 15.1681 5.00459 14.4492C5.75474 13.3031 6.96331 12.6468 8.32816 12.5738C8.64072 12.553 8.93244 12.5738 9.20333 12.751L10.266 13.4282C11.6934 14.3346 13.3708 14.5951 14.9753 13.9595C15.3191 13.8241 15.6421 13.6886 15.9547 13.4803L17.1007 12.751C17.3716 12.5738 17.6633 12.553 17.9759 12.5634C19.3512 12.6363 20.5702 13.3136 21.3203 14.47C21.7891 15.1889 22.1225 15.9391 22.3205 16.783C22.6643 18.1791 22.8206 19.6169 22.7164 21.0443C22.6122 22.3258 21.8829 23.3989 20.7681 23.9823C20.2784 24.2428 19.7679 24.3366 19.247 24.4408L19.2261 24.4512ZM18.5385 6.97898C18.5385 5.49953 17.9759 4.15551 16.9444 3.11364C16.0172 2.18638 14.8607 1.60293 13.5479 1.4779C11.8914 1.32162 10.3598 1.85298 9.15124 3.00945C8.05727 4.06174 7.46341 5.44743 7.45299 6.97898C7.44257 8.51054 8.05727 9.9379 9.17207 11.011C10.1723 11.9591 11.4225 12.4905 12.7978 12.5322C14.4023 12.5843 15.8817 11.9904 16.9965 10.8131C18.0071 9.75036 18.5281 8.4376 18.5177 6.97898H18.5385Z" fill="#366E6D"/>
</svg>
