<svg width="26" height="26" viewBox="0 0 26 26" fill="none" xmlns="http://www.w3.org/2000/svg">
<path d="M2.4258 19.3264L0.74582 15.7219C0.246078 14.6586 0.74583 13.4358 1.81974 12.9786C4.11643 11.9154 6.22171 10.565 8.18878 8.97007C9.37965 8.00248 10.4429 6.9711 11.4743 5.81212L16.9077 17.4657C12.8034 17.6039 8.87992 18.529 5.24351 20.2515C4.18023 20.7512 2.97871 20.4429 2.4258 19.337V19.3264ZM21.7775 16.9021C22.1922 16.2748 22.2241 15.5411 21.9051 14.8606L16.7695 3.80253C16.4398 3.09013 15.8019 2.64355 15.0788 2.57975C14.3133 2.51596 13.6221 2.86684 13.1968 3.49417L12.5801 4.41923L18.7578 17.6677L19.9487 17.7847C20.7142 17.8591 21.4054 17.4763 21.7881 16.9021H21.7775ZM13.5477 21.2084L12.5589 19.0925C11.0065 19.3796 9.52852 19.7836 8.01867 20.3365L9.34777 23.1968C9.92194 24.4195 11.2085 24.6641 12.3675 24.1112C13.5265 23.5583 14.1219 22.4099 13.5371 21.2191L13.5477 21.2084ZM20.5441 3.15393C20.7142 2.69672 20.459 2.20761 20.0231 2.04811C19.5871 1.88862 19.0874 2.09064 18.9173 2.54786L18.1198 4.74884C17.9497 5.21669 18.1942 5.7058 18.6408 5.86529C19.0874 6.02478 19.5765 5.82276 19.7573 5.33365L20.5441 3.16456V3.15393ZM22.6494 11.5751C22.1816 11.405 21.6818 11.6814 21.5329 12.128C21.3841 12.5746 21.618 13.0424 22.0646 13.2126L24.2549 14.01C24.7228 14.1801 25.2119 13.8931 25.3501 13.4784C25.5096 13.0212 25.2863 12.5321 24.8079 12.3619L22.6388 11.5751H22.6494ZM23.6595 8.27894C24.1061 8.06628 24.2549 7.53464 24.0636 7.13059C23.8722 6.72655 23.3724 6.50326 22.9365 6.70528L20.7887 7.70476C20.3421 7.91742 20.1932 8.45969 20.3952 8.86374C20.5973 9.26779 21.0864 9.49107 21.5329 9.27842L23.6489 8.28957L23.6595 8.27894Z" fill="black" fill-opacity="0.4"/>
</svg>
