<svg width="26" height="26" viewBox="0 0 26 26" fill="none" xmlns="http://www.w3.org/2000/svg">
<path d="M20.0973 6.84462C21.6994 6.85516 22.9959 8.14105 22.9748 9.74315V11.0607H3.47559V9.79585C3.44397 8.13051 4.78256 6.813 6.4479 6.84462C6.66924 6.84462 6.8695 6.84462 7.10139 6.82354C6.606 6.34924 6.24763 5.82223 6.17385 5.13712C5.94197 3.09234 7.92351 1.40592 9.91559 1.59565C11.6125 1.75375 12.6244 3.69313 13.2884 5.14766C13.7943 3.35584 14.8062 1.69051 16.7877 1.59565C18.7693 1.50079 20.3714 2.99748 20.3503 4.9474C20.3503 5.67467 19.9814 6.26491 19.4333 6.813C19.6441 6.83408 19.8654 6.84462 20.0973 6.84462ZM12.1606 6.80246C11.9709 6.19113 11.7917 5.71683 11.5704 5.22144C11.4755 5.1055 11.4017 5.0001 11.328 4.87362C10.9801 4.23067 10.411 3.16612 9.56777 3.14504C8.80888 3.1345 8.11323 3.61935 7.79703 4.28337C7.57569 4.75768 7.70217 5.23198 8.09215 5.57981C9.11454 6.50734 10.8115 6.80246 12.1606 6.79192V6.80246ZM18.158 5.72737C18.4109 5.53765 18.6744 5.2636 18.6955 4.93686C18.7587 4.30445 18.3582 3.70367 17.8628 3.41909C17.2937 3.0818 16.6086 3.03964 16.071 3.398C15.5756 3.72475 15.2383 4.25175 15.0486 4.81038L14.3741 6.82354C15.7021 6.80246 17.125 6.50734 18.1474 5.72737H18.158ZM12.4347 12.6417H3.47559V21.3056C3.47559 22.9183 4.7404 24.2358 6.36357 24.2358H12.4347V12.6417ZM22.9748 12.6417H14.0157V24.2463H20.1395C21.6889 24.2463 22.9115 22.9921 22.9748 21.4427V12.6522V12.6417Z" fill="#366E6D"/>
</svg>
