<svg width="30" height="30" viewBox="0 0 30 30" fill="none" xmlns="http://www.w3.org/2000/svg">
<g clip-path="url(#clip0_4074_514003)">
<g filter="url(#filter0_d_4074_514003)">
<path d="M3.97676 7.50366C3.71957 7.50401 3.47287 7.60563 3.29006 7.78654C3.10725 7.96744 3.00304 8.21307 3 8.47025V22.1643C3 22.9915 3.16324 23.8244 3.67877 24.5127C4.1942 25.201 5.08705 25.6296 6.08954 25.6296H17.9638H23.7264C25.7313 25.6296 27.4705 24.1269 27.4705 22.1643V13.4471C27.4705 11.4846 25.7313 9.98192 23.7264 9.98192H6.74411C5.69211 9.98192 4.95355 9.25802 4.95355 8.47025C4.95051 8.21307 4.84631 7.96744 4.6635 7.78654C4.48068 7.60563 4.23395 7.504 3.97676 7.50366ZM15.2372 12.5086C15.9331 12.5085 16.6221 12.6456 17.2651 12.9119C17.908 13.1782 18.4922 13.5685 18.9842 14.0606C19.4763 14.5527 19.8666 15.1368 20.1329 15.7798C20.3992 16.4227 20.5363 17.1118 20.5363 17.8077C20.5363 18.5035 20.3992 19.1926 20.1329 19.8355C19.8666 20.4785 19.4763 21.0627 18.9842 21.5547C18.4922 22.0468 17.908 22.4371 17.2651 22.7034C16.6221 22.9697 15.9331 23.1068 15.2372 23.1067C14.5413 23.1068 13.8522 22.9697 13.2093 22.7034C12.5664 22.4371 11.9822 22.0468 11.4901 21.5547C10.998 21.0626 10.6077 20.4785 10.3414 19.8355C10.0751 19.1926 9.93807 18.5035 9.9381 17.8077C9.93807 17.1118 10.0751 16.4227 10.3414 15.7798C10.6077 15.1368 10.998 14.5527 11.4901 14.0606C11.9822 13.5685 12.5664 13.1782 13.2093 12.9119C13.8522 12.6456 14.5413 12.5086 15.2372 12.5086Z" fill="white"/>
<path d="M6.74473 5C4.74122 5 3 6.50802 3 8.47037C3 10.4327 4.74122 11.9359 6.74473 11.9359C7.0038 11.9357 7.25217 11.8327 7.43536 11.6495C7.61855 11.4663 7.72157 11.2179 7.72183 10.9588C7.72157 10.6998 7.61855 10.4514 7.43536 10.2682C7.25217 10.085 7.0038 9.98199 6.74473 9.98174C5.69273 9.98175 4.95419 9.25815 4.95419 8.47037C4.95419 7.68259 5.69273 6.959 6.74473 6.959H21.536C22.2169 6.959 22.7489 7.49101 22.7489 8.17195V10.9588C22.7491 11.2179 22.8522 11.4663 23.0353 11.6495C23.2185 11.8327 23.4669 11.9357 23.726 11.9359C23.985 11.9357 24.2334 11.8327 24.4166 11.6495C24.5998 11.4663 24.7028 11.2179 24.7031 10.9588V8.17195C24.7031 6.43384 23.274 5 21.536 5H6.74473Z" fill="white"/>
<path d="M14.6014 20.7283L12.3193 18.4421C11.9423 18.0644 11.9956 17.4953 12.3192 17.1752C12.7016 16.7971 13.2626 16.8585 13.5864 17.1752L14.3365 17.9253L14.3366 15.5283C14.3366 15.0092 14.7494 14.6282 15.2369 14.6282C15.7598 14.6282 16.1334 15.0678 16.1334 15.5286V17.9266L16.8442 17.2146C17.2639 16.7424 17.967 16.8703 18.2456 17.282C18.4494 17.5832 18.5282 18.0686 18.1544 18.4423L15.8405 20.7522C15.7789 20.8138 15.5564 20.9881 15.2368 20.9881C14.9118 20.9881 14.7039 20.831 14.6014 20.7283Z" fill="white"/>
</g>
</g>
<defs>
<filter id="filter0_d_4074_514003" x="-1" y="3" width="32.4707" height="28.6296" filterUnits="userSpaceOnUse" color-interpolation-filters="sRGB">
<feFlood flood-opacity="0" result="BackgroundImageFix"/>
<feColorMatrix in="SourceAlpha" type="matrix" values="0 0 0 0 0 0 0 0 0 0 0 0 0 0 0 0 0 0 127 0" result="hardAlpha"/>
<feOffset dy="2"/>
<feGaussianBlur stdDeviation="2"/>
<feComposite in2="hardAlpha" operator="out"/>
<feColorMatrix type="matrix" values="0 0 0 0 0 0 0 0 0 0 0 0 0 0 0 0 0 0 0.25 0"/>
<feBlend mode="normal" in2="BackgroundImageFix" result="effect1_dropShadow_4074_514003"/>
<feBlend mode="normal" in="SourceGraphic" in2="effect1_dropShadow_4074_514003" result="shape"/>
</filter>
<clipPath id="clip0_4074_514003">
<rect width="30" height="30" fill="white"/>
</clipPath>
</defs>
</svg>
