<svg width="30" height="30" viewBox="0 0 30 30" fill="none" xmlns="http://www.w3.org/2000/svg">
<g clip-path="url(#clip0_4074_513997)">
<g filter="url(#filter0_d_4074_513997)">
<path fill-rule="evenodd" clip-rule="evenodd" d="M22.5 3.75H7.5C4.75 3.75 2.5 6 2.5 8.75C2.5 10.875 3.75 12.625 5.625 13.375V8.75C5.625 8.25 5.875 7.75 6.125 7.375C6.375 7 7 6.875 7.5 6.875H22.5C23 6.875 23.5 7.125 23.875 7.375C24.25 7.625 24.375 8.25 24.375 8.75V13.375C26.25 12.625 27.5 10.875 27.5 8.75C27.5 6 25.25 3.75 22.5 3.75ZM22.5 23.75V8.75H7.5V23.75C7.5 25.125 8.625 26.25 10 26.25H20C21.375 26.25 22.5 25.125 22.5 23.75ZM14 15.5L13.125 16.375C12.75 16.75 12.125 16.75 11.75 16.375C11.375 16 11.375 15.375 11.75 15L13.375 13.375C14.25 12.5 15.625 12.5 16.5 13.375L18.125 15C18.5 15.375 18.5 16 18.125 16.375C17.75 16.75 17.125 16.75 16.75 16.375L15.875 15.5V20.75C15.875 21.25 15.5 21.75 14.875 21.75C14.25 21.75 13.875 21.375 13.875 20.75V15.5H14Z" fill="white"/>
</g>
</g>
<defs>
<filter id="filter0_d_4074_513997" x="-1.5" y="1.75" width="33" height="30.5" filterUnits="userSpaceOnUse" color-interpolation-filters="sRGB">
<feFlood flood-opacity="0" result="BackgroundImageFix"/>
<feColorMatrix in="SourceAlpha" type="matrix" values="0 0 0 0 0 0 0 0 0 0 0 0 0 0 0 0 0 0 127 0" result="hardAlpha"/>
<feOffset dy="2"/>
<feGaussianBlur stdDeviation="2"/>
<feComposite in2="hardAlpha" operator="out"/>
<feColorMatrix type="matrix" values="0 0 0 0 0 0 0 0 0 0 0 0 0 0 0 0 0 0 0.25 0"/>
<feBlend mode="normal" in2="BackgroundImageFix" result="effect1_dropShadow_4074_513997"/>
<feBlend mode="normal" in="SourceGraphic" in2="effect1_dropShadow_4074_513997" result="shape"/>
</filter>
<clipPath id="clip0_4074_513997">
<rect width="30" height="30" fill="white"/>
</clipPath>
</defs>
</svg>
