<svg width="77" height="24" viewBox="0 0 77 24" fill="none" xmlns="http://www.w3.org/2000/svg">
<path d="M0.00855631 12.4339C-0.0027317 12.1569 -0.00297187 11.8358 0.00855631 11.5591C0.400515 2.08871 11.3074 -3.30043 19.222 2.22361C26.295 7.16022 25.9828 17.6398 18.6362 22.1618C10.6719 27.0638 0.382742 21.5973 0.00855631 12.4339Z" fill="#D22429"/>
<path d="M11.6949 4.16525C5.77203 4.47955 2.27539 11.0066 5.34261 16.0353C8.46411 21.153 16.0643 21.091 19.0893 15.9167C22.2691 10.4777 18.0106 3.82988 11.6949 4.16501V4.16525Z" fill="white"/>
<path d="M76.9037 5.57666H26.7524V6.94797H76.9037V5.57666Z" fill="#D2232A"/>
<path d="M77.0004 18.3218H26.8252V19.6697H77.0004V18.3218Z" fill="#D2232A"/>
<path d="M45.2506 14.6568L44.7448 12.5986L44.0728 12.6216L43.5584 14.6329L43.1981 12.5993H42.3337L43.1743 15.7204L43.9424 15.7206L44.4105 13.6869L44.8889 15.6986L45.632 15.7221L46.487 12.5993H45.6589L45.2506 14.6568Z" fill="#25408E"/>
<path d="M39.7767 14.6568L39.2709 12.5986L38.5989 12.6216L38.0845 14.6329L37.7242 12.5993H36.8599L37.7005 15.7204L38.4685 15.7206L38.9366 13.6869L39.415 15.6986L40.1584 15.7221L41.0131 12.5993H40.185L39.7767 14.6568Z" fill="#25408E"/>
<path d="M32.5146 14.5621L31.4002 12.9052L31.2304 12.5996H30.426V15.7209H31.2183L31.1706 13.7584L32.4547 15.7209H33.2588V12.5996H32.4668L32.5146 14.5621Z" fill="#25408E"/>
<path d="M54.9616 14.5621L53.8474 12.9052L53.6774 12.5996H52.873V15.7209H53.6654L53.6176 13.7584L54.9018 15.7209H55.7061V12.5996H54.9138L54.9616 14.5621Z" fill="#25408E"/>
<path d="M61.6792 12.5356C60.5492 12.6277 60.1277 13.6608 60.3513 14.6569C60.682 16.1293 62.8421 16.1849 63.2746 14.7455C63.6183 13.6018 62.991 12.4286 61.6792 12.5356ZM61.5932 15.1123C60.871 14.8823 60.8852 13.2908 61.7022 13.173C62.9564 12.9922 62.8325 15.5071 61.5932 15.1123Z" fill="#25408E"/>
<path d="M72.1223 12.5356C70.9923 12.6277 70.5708 13.6608 70.7944 14.6569C71.1251 16.1293 73.2852 16.1849 73.7177 14.7455C74.0614 13.6018 73.4341 12.4286 72.1223 12.5356ZM72.0363 15.1123C71.3141 14.8823 71.3283 13.2908 72.1453 13.173C73.3995 12.9922 73.2756 15.5071 72.0363 15.1123Z" fill="#25408E"/>
<path d="M35.0307 12.5356C33.9007 12.6277 33.4792 13.6608 33.7028 14.6569C34.0335 16.1293 36.1936 16.1849 36.6262 14.7455C36.9699 13.6018 36.3425 12.4286 35.0307 12.5356ZM34.945 15.1123C34.2228 14.8823 34.237 13.2908 35.054 13.173C36.3082 12.9922 36.1843 15.5071 34.945 15.1123Z" fill="#25408E"/>
<path d="M48.8394 13.7818H47.543C47.5473 13.3873 47.5223 12.9894 47.591 12.5996H46.7747V15.7207H47.591C47.5182 15.2996 47.5494 14.8696 47.543 14.4438H48.8394L48.8154 15.7207H49.6077V12.5996H48.8154L48.8394 13.7818Z" fill="#25408E"/>
<path d="M30.018 12.5996H29.0097L28.758 12.9546L27.9297 13.8055L27.9535 12.5996H27.1611V15.7207H27.9535L27.9345 14.697L28.3255 14.3255C28.6002 14.7891 28.9451 15.2246 29.1541 15.7209H30.1383L28.8416 13.8407L30.0182 12.5998L30.018 12.5996Z" fill="#25408E"/>
<path d="M50.8564 14.4441L52.2489 14.4678V13.7821L50.8564 13.8058V13.2383L52.4168 13.2619V12.5763C52.3832 12.5625 52.3448 12.5999 52.3328 12.5999H50.0881V15.721H52.3808C52.3928 15.721 52.4312 15.7584 52.4649 15.7447V15.059L50.8564 15.0827V14.4444V14.4441Z" fill="#25408E"/>
<path d="M66.8687 13.9119C66.6466 13.8272 65.8862 13.7443 65.8067 13.5628C65.6191 13.1349 66.3819 12.991 66.5918 13.3098C66.618 13.3496 66.6461 13.4698 66.6687 13.4752L67.4451 13.4033C67.2852 12.1079 64.6976 12.2781 65.0276 13.692C65.2166 14.5022 66.0654 14.2733 66.5654 14.5656C66.8277 14.719 66.7004 15.1107 66.3987 15.1511C66.049 15.198 65.721 15.0896 65.6924 14.7038L64.9243 14.7748C64.9308 15.651 65.8555 15.8825 66.5901 15.7653C67.656 15.5951 67.869 14.2934 66.8687 13.9124V13.9119Z" fill="#25408E"/>
<path d="M76.4957 12.9429C76.0331 12.3976 74.8114 12.6658 74.1675 12.5993V15.7205H74.9598L74.9358 14.6801C75.467 14.6725 76.1273 14.7502 76.4957 14.2896C76.7762 13.9388 76.7892 13.2892 76.4957 12.9431V12.9429ZM75.7749 13.9814C75.7572 13.9933 75.6534 14.0416 75.644 14.0416H74.9358V13.2376H75.6681C75.6839 13.2376 75.8218 13.323 75.8446 13.3474C75.9985 13.5126 75.9647 13.8541 75.7749 13.9812V13.9814Z" fill="#25408E"/>
<path d="M34.2791 9.45466L34.2431 10.9682H34.7712V8.69824H34.0509C34.0567 8.7851 34.0276 8.86557 34.0034 8.94699C33.8845 9.34508 33.7286 9.79595 33.5771 10.1832C33.5655 10.2127 33.5879 10.2456 33.5353 10.2352L33.0189 8.69824H32.2986C32.2898 8.7238 32.3227 8.75007 32.3227 8.75741V10.909C32.3227 10.9164 32.2898 10.9427 32.2986 10.9682H32.8268L32.803 9.4788L33.3093 10.9661L33.7733 10.9699L34.2793 9.4549L34.2791 9.45466Z" fill="#25408E"/>
<path d="M67.7336 13.2855L68.7421 13.2616L68.7181 15.7209H69.5342L69.5102 13.2616L70.5427 13.2855V12.5762H67.7336V13.2855Z" fill="#25408E"/>
<path d="M57.2905 13.2855L58.299 13.2616L58.2748 15.7209H59.0911L59.0668 13.2616L60.0993 13.2855V12.5762H57.2905V13.2855Z" fill="#25408E"/>
<path d="M41.6495 10.1171C41.3781 9.6272 40.9958 9.20118 40.7494 8.69824H40.1492V10.9682H40.7253L40.7133 9.54933L41.6255 10.9682H42.2137V8.69824H41.6375L41.6495 10.1171Z" fill="#25408E"/>
<path d="M51.9964 10.1171C51.725 9.6272 51.3427 9.20118 51.0963 8.69824H50.4961V10.9682H51.0723L51.0603 9.54933L51.9724 10.9682H52.5606V8.69824H51.9844L51.9964 10.1171Z" fill="#25408E"/>
<path d="M36.7158 10.8851C36.9994 10.7587 37.0916 10.4449 37.0172 10.1625C36.9607 9.9476 36.796 9.84346 36.5959 9.77364C37.0152 9.65057 37.0774 9.05509 36.7239 8.82007C36.6403 8.76445 36.4669 8.70812 36.3677 8.69795C35.9804 8.65748 35.5259 8.728 35.1313 8.69795V10.9679H36.4158C36.4638 10.9679 36.6624 10.9087 36.7158 10.8851ZM35.6835 9.1474C35.8528 9.17154 36.1153 9.1145 36.2717 9.1474C36.4141 9.17722 36.4511 9.42502 36.3483 9.51827C36.3389 9.52679 36.2534 9.57294 36.2477 9.57294H35.6835V9.1474ZM35.6835 10.5187V9.99849H36.2717C36.4453 9.99849 36.5387 10.2903 36.4244 10.4328C36.4067 10.455 36.3111 10.5187 36.2957 10.5187H35.6835Z" fill="#25408E"/>
<path d="M55.2741 9.77364C55.6935 9.65057 55.7557 9.05509 55.4021 8.82007C55.3186 8.76445 55.1452 8.70812 55.046 8.69795C54.6586 8.65748 54.2042 8.728 53.8096 8.69795V10.9679H55.094C55.142 10.9679 55.3407 10.9087 55.394 10.8851C55.6776 10.7587 55.7698 10.4449 55.6954 10.1625C55.639 9.9476 55.4742 9.84346 55.2741 9.77364ZM54.3617 9.1474C54.531 9.17154 54.7935 9.1145 54.9499 9.1474C55.0923 9.17722 55.1293 9.42502 55.0265 9.51827C55.0172 9.52679 54.9316 9.57294 54.9259 9.57294H54.3617V9.1474ZM55.1027 10.4328C55.0849 10.455 54.9893 10.5187 54.9739 10.5187H54.3617V9.99849H54.9499C55.1235 9.99849 55.217 10.2903 55.1027 10.4328Z" fill="#25408E"/>
<path d="M62.4396 8.69824H61.3232V10.9682H62.4396C63.6894 10.9682 63.7432 8.69824 62.4396 8.69824ZM62.7261 10.2811C62.6795 10.3486 62.4934 10.4956 62.4155 10.4956H61.8754V9.17136H62.4155C62.4398 9.17136 62.5733 9.22769 62.6036 9.24615C62.8925 9.422 62.9002 10.0286 62.7261 10.2811Z" fill="#25408E"/>
<path d="M64.7921 8.69824H63.6758V10.9682H64.7921C66.0419 10.9682 66.0957 8.69824 64.7921 8.69824ZM65.0786 10.2811C65.032 10.3486 64.8459 10.4956 64.7681 10.4956H64.2279V9.17136H64.7681C64.7923 9.17136 64.9259 9.22769 64.9561 9.24615C65.2451 9.422 65.2527 10.0286 65.0786 10.2811Z" fill="#25408E"/>
<path d="M29.586 10.7435V9.69123H28.6498V10.1404H29.0578V10.4716C28.7487 10.5774 28.3484 10.6237 28.1807 10.2832C28.0256 9.96791 28.0431 9.22545 28.4802 9.1341C28.729 9.08203 28.9611 9.13457 29.0497 9.38545L29.5759 9.26711C29.5487 8.97079 29.2257 8.74121 28.9435 8.68062C27.9843 8.47448 27.4057 9.20557 27.5517 10.0986C27.7177 11.1139 28.8347 11.2232 29.5857 10.7435H29.586Z" fill="#25408E"/>
<path d="M44.542 10.7435V9.69123H43.6058V10.1404H44.0139V10.4716C43.7048 10.5774 43.3044 10.6237 43.1368 10.2832C42.9816 9.96791 42.9992 9.22545 43.4363 9.1341C43.6851 9.08203 43.9171 9.13457 44.0057 9.38545L44.5319 9.26711C44.5048 8.97079 44.1818 8.74121 43.8996 8.68062C42.9403 8.47448 42.3618 9.20557 42.5078 10.0986C42.6737 11.1139 43.7908 11.2232 44.5418 10.7435H44.542Z" fill="#25408E"/>
<path d="M57.7469 10.4954H56.5945V10.0225L57.5788 10.0461V9.5496C57.5612 9.54321 57.5499 9.57327 57.5427 9.57327H56.5945V9.17139H57.6988V8.67484C57.6729 8.66608 57.6462 8.69851 57.6388 8.69851H56.0184C56.0095 8.72407 56.0424 8.75034 56.0424 8.75768V10.933C56.0424 10.9401 56.0119 10.9512 56.0184 10.9685H57.7469V10.4956V10.4954Z" fill="#25408E"/>
<path d="M74.7433 10.9327C74.7433 10.9398 74.7128 10.951 74.7193 10.9682H76.4478V10.4954H75.2955V10.0225L76.2797 10.0461V9.5496C76.2622 9.54321 76.2509 9.57327 76.2437 9.57327H75.2955V9.17139H76.3998V8.67484C76.3738 8.66608 76.3472 8.69851 76.3397 8.69851H74.7193C74.7104 8.72407 74.7433 8.75034 74.7433 8.75768V10.933V10.9327Z" fill="#25408E"/>
<path d="M31.3394 10.4352L31.4826 10.9682H32.1068L31.3135 8.69938L30.6295 8.69678L29.7781 10.9682H30.3903L30.561 10.4229L31.3397 10.4352H31.3394ZM30.9422 9.17084L31.2184 9.97507H30.6902L30.9424 9.17084H30.9422Z" fill="#25408E"/>
<path d="M49.511 8.69938L48.827 8.69678L47.9756 10.9682H48.5878L48.7585 10.4229L49.5372 10.4352L49.6803 10.9682H50.3045L49.5112 8.69938H49.511ZM48.8878 9.97507L49.1399 9.17084L49.4161 9.97507H48.888H48.8878Z" fill="#25408E"/>
<path d="M59.5618 10.4229L60.3404 10.4352L60.4835 10.9682H61.1077L60.3145 8.69938L59.6305 8.69678L58.7791 10.9682H59.3912L59.562 10.4229H59.5618ZM59.9432 9.17084L60.2194 9.97507H59.6912L59.9434 9.17084H59.9432Z" fill="#25408E"/>
<path d="M69.0057 10.2113L68.4535 10.1403C68.4365 10.4863 68.0752 10.638 67.7721 10.4922C67.3209 10.2747 67.361 9.18766 67.8886 9.12328C68.1788 9.08778 68.3721 9.18505 68.4305 9.47735L68.9814 9.38386C68.8801 8.5633 67.6636 8.42958 67.1801 8.99334C66.8357 9.39499 66.8151 10.1266 67.0987 10.5644C67.555 11.2695 68.9531 11.1481 69.0054 10.2118L69.0057 10.2113Z" fill="#25408E"/>
<path d="M47.8318 10.2113L47.2797 10.1403C47.2626 10.4863 46.9014 10.638 46.5983 10.4922C46.147 10.2747 46.1871 9.18766 46.7148 9.12328C47.0049 9.08778 47.1983 9.18505 47.2566 9.47735L47.8076 9.38386C47.7062 8.5633 46.4898 8.42958 46.0063 8.99334C45.6619 9.39499 45.6412 10.1266 45.9249 10.5644C46.3812 11.2695 47.7792 11.1481 47.8316 10.2118L47.8318 10.2113Z" fill="#25408E"/>
<path d="M73.7206 10.9696L74.5276 8.69824H73.9034L73.399 10.4717L72.8351 8.69824H72.2229L73.0162 10.9673L73.7206 10.9696Z" fill="#25408E"/>
<path d="M69.2579 9.17087H69.9181L69.8941 10.968H70.4943C70.5032 10.9424 70.4703 10.9161 70.4703 10.9088V9.17087L71.2146 9.19453V8.67432H69.1738V9.19453C69.2075 9.20826 69.2459 9.17087 69.2579 9.17087Z" fill="#25408E"/>
<path d="M37.3405 10.9327C37.3405 10.9398 37.31 10.9509 37.3165 10.9682H38.9849C38.9921 10.9682 39.0034 10.998 39.021 10.9919V10.4717L37.8926 10.4953V8.78108C37.8926 8.76925 37.9306 8.73138 37.9167 8.69824H37.3165C37.3076 8.7238 37.3405 8.75007 37.3405 8.75741V10.9327Z" fill="#25408E"/>
<path d="M39.8128 8.69824H39.2126V10.9682H39.8128V8.69824Z" fill="#25408E"/>
<path d="M66.6292 8.69824H66.0291V10.9682H66.6292V8.69824Z" fill="#25408E"/>
<path d="M72.0311 8.69824H71.4309V10.9682H72.0311V8.69824Z" fill="#25408E"/>
<path d="M8.19934 2.13877L8.53149 3.47245L7.8326 2.29332L7.37939 2.43249L8.14842 4.34697L8.43446 4.24188L7.93179 2.9998L8.6511 4.14768L8.91601 4.06319L8.58001 2.66869L9.14369 3.96828L9.41916 3.8374L8.64942 1.96126C8.61531 1.93759 8.20702 2.1054 8.1991 2.13877H8.19934Z" fill="white"/>
<path d="M13.261 2.30242L13.2132 2.59803L13.0172 1.43145L12.9613 1.39169L12.6113 1.37891L12.4207 3.42569L12.7086 3.44936L12.8289 2.08917L12.8767 2.05415L13.0943 3.4716L13.4531 3.49669L13.6227 1.4776L13.3333 1.43973L13.261 2.30242Z" fill="white"/>
<path d="M10.5448 3.1565C10.529 2.96219 10.4226 2.53451 10.1637 2.55061C10.1637 2.49333 10.2203 2.47038 10.2475 2.40884C10.321 2.24293 10.2211 1.84081 10.0796 1.72295C9.87354 1.55088 9.40233 1.72579 9.16504 1.79301L9.673 3.77802C10.0529 3.65423 10.5883 3.69565 10.5446 3.15674L10.5448 3.1565ZM9.56348 1.98329C9.72416 1.97288 9.8159 1.89217 9.89468 2.07086C9.99531 2.29926 9.98978 2.5054 9.68573 2.50138L9.56348 1.98306V1.98329ZM10.1814 3.32502C10.1533 3.35436 9.92254 3.4204 9.90044 3.40123L9.75538 2.81119C9.84688 2.7977 9.9528 2.73498 10.0431 2.77569C10.1435 2.82089 10.2588 3.24384 10.1812 3.32502H10.1814Z" fill="white"/>
<path d="M17.4869 5.16438L18.0465 4.51636C18.4187 4.6844 17.9975 4.98569 17.8606 5.17716C17.6596 5.45833 17.789 5.40816 18.0143 5.60081C18.1171 5.25455 18.6337 5.0361 18.4949 4.63162C18.7679 4.70759 19.121 4.25743 19.121 4.02857C19.121 3.91401 19.0845 3.84135 19.0112 3.75639C18.9601 3.69722 18.6443 3.43522 18.5796 3.40113C18.5566 3.38906 18.5453 3.36895 18.51 3.37936L17.2244 4.97125L17.4871 5.16438H17.4869ZM18.5818 3.82881C18.6258 3.81556 18.7302 3.91188 18.7463 3.94597C18.8352 4.13531 18.3659 4.61079 18.2571 4.22217L18.5818 3.82881Z" fill="white"/>
<path d="M17.0066 4.69086C17.2093 4.63879 17.5453 4.01657 17.6581 3.81941C17.7619 3.63812 17.9632 3.36594 17.9406 3.15601C17.9139 2.9075 17.6012 2.6978 17.3608 2.721C17.2398 2.73259 17.1199 2.81614 17.0438 2.90726C16.9364 3.03554 16.3723 3.97846 16.3442 4.10958C16.2623 4.49229 16.6463 4.7834 17.0063 4.6911L17.0066 4.69086ZM16.6881 4.14058C16.734 4.00568 17.1713 3.29541 17.2739 3.15695C17.2979 3.12453 17.3457 3.06228 17.3831 3.05116C17.5229 3.00998 17.6454 3.12027 17.5952 3.25991L16.9542 4.33182C16.8137 4.47738 16.6132 4.36117 16.6881 4.14058Z" fill="white"/>
<path d="M5.91398 5.35286C6.16544 5.59877 6.43996 5.64137 6.69526 5.3647C7.08842 4.93892 6.45124 4.54603 6.24758 4.20877C6.22572 4.19646 6.1993 4.20616 6.17865 4.21729C6.0845 4.2677 5.94881 4.44166 5.84289 4.50106L6.04992 4.72401L6.16664 4.63171C6.23293 4.72591 6.48126 4.94862 6.49087 5.04731C6.50624 5.20683 6.32347 5.27713 6.18994 5.15216C5.999 4.97371 5.67549 4.57372 5.50713 4.35858C5.44685 4.28143 5.35102 4.19102 5.39858 4.08783C5.53739 3.78819 5.7939 4.22439 5.83016 4.22463L6.0564 4.00783C5.86667 3.74228 5.62313 3.55388 5.29746 3.75151C5.03544 3.91055 4.97804 4.18108 5.13607 4.43976C5.25639 4.63621 5.73722 5.18056 5.9135 5.35286H5.91398Z" fill="white"/>
<path d="M14.3957 3.67978C14.7771 3.60286 14.7898 2.89757 14.8693 2.59746L14.3892 2.52646L14.3412 2.81L14.4833 2.83579C14.5042 2.85993 14.4115 3.26087 14.3841 3.31364C14.3203 3.43624 14.0875 3.38796 14.0784 3.24667C14.174 2.87532 14.2182 2.46137 14.3243 2.09618C14.3784 1.90991 14.4514 1.84814 14.6416 1.95891L14.6318 2.33546C14.7122 2.33286 14.8895 2.4351 14.9365 2.34445C14.9579 2.30351 14.9913 2.07464 14.9879 2.02186C14.9596 1.57502 14.26 1.40958 14.0566 1.85642C13.978 2.02873 13.741 3.04431 13.7412 3.22442C13.7417 3.56523 14.082 3.74345 14.3957 3.68026V3.67978Z" fill="white"/>
<path d="M20.151 16.7368L20.9913 17.2573L20.0184 16.9574C19.991 16.9602 19.8015 17.244 19.8253 17.2812L21.3509 18.2175C21.4102 18.2482 21.5262 18.0371 21.5211 18.0045L20.487 17.3522L21.6801 17.7257C21.7556 17.7271 21.813 17.528 21.8773 17.4816L20.3068 16.5049L20.1512 16.7364L20.151 16.7368Z" fill="white"/>
<path d="M7.13822 4.99806C7.16224 4.98977 7.34933 4.86836 7.35293 4.85345C7.34477 4.76895 7.17689 4.53346 7.21508 4.46979L7.50929 4.30057L7.77467 4.60186L8.05063 4.43027L6.66557 2.88477L6.29787 3.08357L6.28394 3.11931L7.0789 4.98598C7.10052 5.01936 7.10916 5.00823 7.13822 4.99829V4.99806ZM6.70688 3.378L7.3061 4.05348C7.31811 4.10697 7.10724 4.19028 7.06713 4.22909L6.70688 3.378Z" fill="white"/>
<path d="M11.8687 21.1824C11.8718 21.5031 11.8579 21.8204 11.8449 22.1404C11.8437 22.1691 11.863 22.2285 11.8212 22.2228L11.6005 21.1869L11.2207 21.1587L11.1494 22.979L11.4146 22.9927L11.4335 22.9643L11.4847 21.7265L11.7729 22.9915L12.046 23.0232L12.0854 22.9676L12.1512 21.2169C12.1401 21.1551 11.9261 21.1916 11.869 21.1824H11.8687Z" fill="white"/>
<path d="M16.07 21.2772C16.2437 21.0758 16.0525 20.5615 15.7924 20.5225C15.588 20.4917 15.2986 20.651 15.1079 20.7243L15.7729 22.4109C16.0215 22.3238 16.4562 22.2535 16.4925 21.9399C16.5146 21.7496 16.3244 21.2561 16.07 21.2772ZM15.4919 20.8666C15.5546 20.823 15.6906 20.7759 15.752 20.8344C15.7691 20.8507 15.8366 21.0081 15.8433 21.0396C15.8841 21.2311 15.815 21.2621 15.6382 21.3014L15.4919 20.8668V20.8666ZM16.1894 21.9018C16.1836 22.0083 16.033 22.0476 15.9396 22.0594L15.759 21.5387C15.8536 21.5352 15.9514 21.4493 16.0395 21.5212C16.0864 21.5596 16.1932 21.8372 16.1896 21.902L16.1894 21.9018Z" fill="white"/>
<path d="M4.5943 18.8183C4.83038 18.9049 5.21178 18.565 5.23171 18.3466C5.25236 18.1196 4.93678 17.8675 4.7982 17.708L3.41626 18.9025C3.43067 18.969 3.57525 19.1404 3.64106 19.1233L4.19802 18.6299C4.24005 18.6675 4.30825 18.7373 4.31762 18.7925C4.3426 18.9371 3.88123 19.2159 3.80366 19.3539C3.79789 19.386 4.01068 19.5967 4.04166 19.5752C4.17952 19.2963 4.63513 19.1825 4.59454 18.8187L4.5943 18.8183ZM4.79844 18.1092C4.80709 18.1092 4.89763 18.2308 4.90148 18.2441C4.96128 18.4443 4.46484 18.7678 4.43674 18.4161L4.79844 18.1092Z" fill="white"/>
<path d="M8.55599 20.5205L7.95557 22.2464C8.26178 22.3145 8.64293 22.5874 8.8783 22.2452C8.94819 22.1436 9.28803 21.1948 9.29788 21.0731C9.33054 20.6793 8.84948 20.6045 8.55575 20.5205H8.55599ZM8.62588 22.0909C8.5937 22.1623 8.37899 22.123 8.34993 22.0821L8.34344 22.0277L8.74813 20.8753C8.82955 20.8803 8.97413 20.9179 8.9883 21.0066C9.01856 21.1931 8.67152 21.8641 8.62588 22.0911V22.0909Z" fill="white"/>
<path d="M13.3031 21.46C13.1917 21.0491 12.7176 21.19 12.3965 21.2063L12.5163 23.0268C13.0589 22.979 13.3978 23.0884 13.3817 22.4228C13.3764 22.2051 13.354 21.6482 13.3029 21.46H13.3031ZM12.8048 22.743L12.7325 21.4425C12.8653 21.4404 12.9926 21.4105 13.0195 21.5739C13.0718 21.8917 13.0351 22.2635 13.0851 22.5861C13.0747 22.7395 12.9251 22.7298 12.8048 22.743Z" fill="white"/>
<path d="M19.9812 17.7202C19.8719 17.6515 19.7492 17.5971 19.6166 17.6177C19.5095 17.6345 19.3843 17.7415 19.3241 17.8264C19.2061 17.9928 19.2054 18.1538 19.3241 18.3199C19.3865 18.4075 20.198 19.0574 20.302 19.1064C20.5319 19.2143 20.7612 19.1265 20.8909 18.9206C20.9892 18.7646 20.9858 18.6155 20.8813 18.465C20.8057 18.3559 20.1193 17.807 19.9809 17.7202H19.9812ZM20.6181 18.8172C20.5518 18.8939 20.4786 18.8579 20.4068 18.8141C20.2394 18.7118 19.7655 18.3317 19.6221 18.1921C19.5443 18.1164 19.4771 17.9658 19.6154 17.924C19.6714 17.9069 19.7256 17.9209 19.7758 17.9464C19.8959 18.008 20.4425 18.4586 20.5593 18.5698C20.6349 18.642 20.7098 18.7114 20.6181 18.8174V18.8172Z" fill="white"/>
<path d="M6.74818 19.6274C6.68838 19.6397 6.57093 19.7192 6.52818 19.7651C6.4374 19.8626 5.8682 20.7253 5.84802 20.8212C5.80839 21.0093 5.86579 21.1663 6.02671 21.273C6.21812 21.3999 6.42323 21.4169 6.59639 21.2508C6.68886 21.1622 7.28064 20.2721 7.30177 20.172C7.36974 19.8484 7.06737 19.5614 6.74842 19.6272L6.74818 19.6274ZM6.38096 21.0387C6.29522 21.1308 6.18666 21.0706 6.14055 20.9705C6.12734 20.927 6.15184 20.8912 6.16913 20.8541C6.23614 20.7104 6.65283 20.078 6.75827 19.9682C6.78373 19.9417 6.80414 19.9154 6.84425 19.9093C6.90765 19.8996 7.01333 19.9748 7.01957 20.0366C7.0323 20.1604 6.46046 20.8707 6.38096 21.0387Z" fill="white"/>
<path d="M17.0536 20.1541C16.9419 20.0322 16.8024 19.996 16.6391 20.0294C16.6016 20.0369 16.4647 20.1072 16.4311 20.1321C16.2783 20.245 16.256 20.4144 16.2973 20.5919C16.3228 20.7013 16.7918 21.5619 16.8735 21.656C17.1898 22.021 17.7655 21.6996 17.6428 21.2296C17.6166 21.1292 17.1269 20.2346 17.0536 20.1546V20.1541ZM17.0911 21.4414C17.0051 21.3285 16.6352 20.6443 16.592 20.5138C16.5625 20.4251 16.5805 20.3344 16.6874 20.3122C16.8024 20.2883 16.819 20.3482 16.8718 20.4282C16.9965 20.6161 17.2537 21.0899 17.3353 21.2954C17.418 21.5032 17.2174 21.6075 17.0911 21.4414Z" fill="white"/>
<path d="M4.27075 16.9805L2.60156 17.789L2.75767 18.0086L3.07086 17.8517L3.2445 18.0973L2.99016 18.357L3.18686 18.5799L4.52221 17.3277L4.27075 16.9805ZM3.63454 17.7665L3.44192 17.9087L3.32207 17.7075L4.04235 17.3764L3.63454 17.7667V17.7665Z" fill="white"/>
<path d="M9.7312 22.7794L9.99443 22.8123L10.0951 22.4859L10.401 22.5337L10.4075 22.8819L10.6924 22.9325L10.7133 21.0914L10.3098 21.0181L9.73144 22.7797L9.7312 22.7794ZM10.4282 22.2703L10.2286 22.2424L10.1885 22.1891L10.4282 21.4663V22.2703Z" fill="white"/>
<path d="M14.2615 20.9507C14.2344 20.9644 14.2204 20.9717 14.2197 21.0058L14.365 22.814L14.6184 22.7447L14.6081 22.3916C14.677 22.3816 14.8852 22.2865 14.9289 22.3412L15.061 22.6384L15.3492 22.5774L14.6278 20.8764C14.6138 20.8643 14.2903 20.9358 14.2615 20.9507ZM14.5812 22.1284L14.5091 21.3481L14.8211 22.0808L14.5812 22.1284Z" fill="white"/>
<path d="M17.6315 19.4112L18.2302 20.5915L17.3106 19.6489L17.0781 19.788L18.3501 21.1482L18.6762 20.9461L17.87 19.2676L17.6315 19.4112Z" fill="white"/>
<path d="M5.52448 18.6343C5.29415 18.6675 5.09337 18.9411 5.0732 19.1602C5.05038 19.4068 5.18872 19.7976 4.91925 19.9547C4.80277 20.0227 4.6786 19.911 4.71871 19.781C4.7348 19.7287 4.84071 19.6792 4.85344 19.6101L4.63248 19.4343C4.41753 19.6322 4.30825 19.8982 4.54843 20.1282C4.81117 20.3801 5.13132 20.261 5.31025 19.985C5.46588 19.7448 5.33811 19.4026 5.39166 19.1429C5.46852 18.7718 5.9736 18.964 5.60253 19.2558L5.8062 19.4563C6.23875 19.1995 5.96255 18.5711 5.52424 18.6343H5.52448Z" fill="white"/>
<path d="M15.926 3.28359L16.3334 3.44903L16.4282 3.16714L16.0677 3.00928L16.2853 2.51321L16.7875 2.69071C16.7947 2.6093 16.9295 2.49048 16.8622 2.42043C16.7698 2.3241 16.2988 2.21452 16.166 2.11133H16.0932L15.2776 3.99267L15.5864 4.0845L15.926 3.28359Z" fill="white"/>
<path d="M19.2636 20.0946L18.9276 19.7046L19.2141 19.4419C19.1555 19.3737 19.0829 19.2017 18.9859 19.2658C18.9364 19.2985 18.7883 19.4653 18.7465 19.4795H18.7114L18.4232 19.137C18.4753 19.0855 18.7695 18.8661 18.7803 18.8249C18.7983 18.7553 18.6432 18.6609 18.6028 18.6055L18.0156 19.137L19.2174 20.4949L19.3226 20.4492L19.8373 19.9853L19.6632 19.7907L19.2633 20.0946H19.2636Z" fill="white"/>
<path d="M2.40942 16.8793L2.90057 16.6419L3.05957 16.9721L3.32183 16.8789L3.15515 16.503L3.5841 16.3132L3.78152 16.7106L4.0421 16.6188L3.68161 15.9097L2.02539 16.7376L2.38517 17.4367L2.6275 17.3378L2.40942 16.8793Z" fill="white"/>
<path d="M11.6765 3.14117L11.1241 3.18874L10.9319 1.46289L10.5959 1.48632L10.8364 3.54352L11.7005 3.44885L11.6765 3.14117Z" fill="white"/>
<path d="M3.47799 15.7443C3.5157 15.7408 3.54932 15.7263 3.58583 15.7202L3.47439 15.4632L2.81776 15.5074L3.33533 15.1055L3.24959 14.822C3.20612 14.7898 2.49377 15.4196 2.39362 15.4802C2.18083 15.6089 1.87173 15.661 1.64453 15.7708L1.7137 16.0515C1.74516 16.0799 2.39578 15.7857 2.51971 15.7696C2.81128 15.7318 3.18186 15.7713 3.47823 15.7441L3.47799 15.7443Z" fill="white"/>
<path d="M21.9191 15.4575C21.7044 15.3346 21.4068 15.0336 21.195 14.8703C21.1659 14.848 21.0768 14.7614 21.0516 14.7988C21.0262 14.8364 20.9558 15.0229 20.9786 15.0584C21.0389 15.1524 21.4323 15.3441 21.5197 15.4605L20.8143 15.412L20.7036 15.697L21.818 15.7465L22.5738 16.0028L22.6622 15.7434C22.6231 15.6956 22.0404 15.5263 21.9194 15.4572L21.9191 15.4575Z" fill="white"/>
<path d="M7.92996 20.2285L7.69939 20.0977L7.65616 20.118L6.85327 21.748L7.53223 22.0554L7.66553 21.8323C7.59684 21.74 7.24523 21.6976 7.26324 21.5783L7.9302 20.2285H7.92996Z" fill="white"/>
<path d="M21.9409 16.6668L20.5669 16.0075C20.5054 16.0018 20.4547 16.1869 20.4182 16.2335L22.0814 17.0704L22.4318 16.3833L22.1791 16.2673C22.1241 16.2713 22.0343 16.6652 21.9407 16.6668H21.9409Z" fill="white"/>
<path d="M11.8203 1.36816L11.8443 3.42536H12.1803L12.1563 1.36816H11.8203Z" fill="white"/>
<path d="M11.5394 13.9192C11.2533 14.0996 10.9163 14.1504 10.5844 14.1845L7.21051 14.1833C8.05736 13.5268 8.96232 12.9396 9.82477 12.3013C10.6586 11.684 11.9628 10.7821 12.2212 9.74328C12.4537 8.80841 12.2034 7.82715 11.3378 7.31663C10.1622 6.62317 7.45117 6.61015 6.45374 7.63331C5.65349 8.45434 5.82089 10.1231 7.22372 10.0704C8.13901 10.0358 8.54634 9.28034 8.24037 8.46404L7.84985 8.45836C7.64907 8.13885 7.76003 7.58195 8.0379 7.3261C8.42506 6.96967 9.25917 6.98694 9.6103 7.38645C10.0546 7.89152 9.9804 9.29738 9.86344 9.92813C9.48061 11.9924 7.47879 13.2771 6.08171 14.6685V16.1937H12.3475L12.4916 12.5524L12.2527 12.5536C12.1756 13.0442 11.9856 13.6383 11.5391 13.9197L11.5394 13.9192Z" fill="#253F8E"/>
<path d="M17.2332 15.9571L17.1974 15.9216V6.83008L16.1291 6.83032L13.116 7.23196L13.1546 7.49372L14.6045 7.32663V15.9571H13.212V16.1935H18.2537V15.9571H17.2332Z" fill="#253F8E"/>
</svg>
